<?xml version="1.0" encoding="UTF-8" standalone="no"?>
<!DOCTYPE svg PUBLIC "-//W3C//DTD SVG 1.1//EN"
"http://www.w3.org/Graphics/SVG/1.1/DTD/svg11.dtd">
<svg viewBox="0 0 912 1287" version="1.1" xmlns="http://www.w3.org/2000/svg" xmlns:xlink="http://www.w3.org/1999/xlink">
<defs>
<clipPath id="c0"><path d="M0,1287.9V0H912.1V1287.9Z"/></clipPath>
<style type="text/css"><![CDATA[
.g0{
fill: #FFF;
}
.g1{
fill: #000;
}
]]></style>
</defs>
<image clip-path="url(#c0)" preserveAspectRatio="none" x="704" y="56" width="151" height="84" xlink:href="img/1.jpg"/>
<path fill-rule="evenodd" d="M695.6,147.8H866.3V51.6H695.6v96.2Z" class="g0"/>
<image preserveAspectRatio="none" x="52" y="48" width="135" height="104" xlink:href="img/2.jpg"/>
<path fill-rule="evenodd" d="M28.4,46.9h1.1V45.8H28.4v1.1Z" class="g1"/>
<path fill-rule="evenodd" d="M28.4,46.9h1.1V45.8H28.4v1.1Z" class="g1"/>
<path fill-rule="evenodd" d="M29.5,46.9H882.4V45.8H29.5v1.1Z" class="g1"/>
<path fill-rule="evenodd" d="M882.4,46.9h1.1V45.8h-1.1v1.1Z" class="g1"/>
<path fill-rule="evenodd" d="M882.4,46.9h1.1V45.8h-1.1v1.1Z" class="g1"/>
<path fill-rule="evenodd" d="M28.4,154.2h1.1V46.9H28.4V154.2Z" class="g1"/>
<path fill-rule="evenodd" d="M882.4,154.2h1.1V46.9h-1.1V154.2Z" class="g1"/>
<path fill-rule="evenodd" d="M28.4,155.3h1.1v-1.1H28.4v1.1Z" class="g1"/>
<path fill-rule="evenodd" d="M29.5,155.3H456.2v-1.1H29.5v1.1Z" class="g1"/>
<path fill-rule="evenodd" d="M456.2,155.3h1.1v-1.1h-1.1v1.1Z" class="g1"/>
<path fill-rule="evenodd" d="M457.3,155.3H882.4v-1.1H457.3v1.1Z" class="g1"/>
<path fill-rule="evenodd" d="M882.4,155.3h1.1v-1.1h-1.1v1.1Z" class="g1"/>
<path fill-rule="evenodd" d="M28.4,302h1.1V155.3H28.4V302Z" class="g1"/>
<path fill-rule="evenodd" d="M456.2,302h1.1V155.3h-1.1V302Z" class="g1"/>
<path fill-rule="evenodd" d="M882.4,302h1.1V155.3h-1.1V302Z" class="g1"/>
<path fill-rule="evenodd" d="M28.4,303.1h1.1V302H28.4v1.1Z" class="g1"/>
<path fill-rule="evenodd" d="M29.5,303.1H456.2V302H29.5v1.1Z" class="g1"/>
<path fill-rule="evenodd" d="M456.2,303.1h1.1V302h-1.1v1.1Z" class="g1"/>
<path fill-rule="evenodd" d="M457.3,303.1H882.4V302H457.3v1.1Z" class="g1"/>
<path fill-rule="evenodd" d="M882.4,303.1h1.1V302h-1.1v1.1Z" class="g1"/>
<path fill-rule="evenodd" d="M28.4,326.4h1.1V303.1H28.4v23.3Z" class="g1"/>
<path fill-rule="evenodd" d="M456.2,326.4h1.1V303.1h-1.1v23.3Z" class="g1"/>
<path fill-rule="evenodd" d="M882.4,326.4h1.1V303.1h-1.1v23.3Z" class="g1"/>
<path fill-rule="evenodd" d="M28.4,327.5h1.1v-1.1H28.4v1.1Z" class="g1"/>
<path fill-rule="evenodd" d="M29.5,327.5H286.1v-1.1H29.5v1.1Z" class="g1"/>
<path fill-rule="evenodd" d="M286.1,327.5h1.1v-1.1h-1.1v1.1Z" class="g1"/>
<path fill-rule="evenodd" d="M287.2,327.5h169v-1.1h-169v1.1Z" class="g1"/>
<path fill-rule="evenodd" d="M456.2,327.5h1.1v-1.1h-1.1v1.1Z" class="g1"/>
<path fill-rule="evenodd" d="M457.3,327.5H717.2v-1.1H457.3v1.1Z" class="g1"/>
<path fill-rule="evenodd" d="M717.2,327.5h1.1v-1.1h-1.1v1.1Z" class="g1"/>
<path fill-rule="evenodd" d="M718.3,327.5H882.4v-1.1H718.3v1.1Z" class="g1"/>
<path fill-rule="evenodd" d="M882.4,327.5h1.1v-1.1h-1.1v1.1Z" class="g1"/>
<path fill-rule="evenodd" d="M28.4,347.6h1.1V327.5H28.4v20.1Z" class="g1"/>
<path fill-rule="evenodd" d="M456.2,347.6h1.1V327.5h-1.1v20.1Z" class="g1"/>
<path fill-rule="evenodd" d="M882.4,347.6h1.1V327.5h-1.1v20.1Z" class="g1"/>
<path fill-rule="evenodd" d="M28.4,367.2h1.1V347.6H28.4v19.6Z" class="g1"/>
<path fill-rule="evenodd" d="M456.2,367.2h1.1V347.6h-1.1v19.6Z" class="g1"/>
<path fill-rule="evenodd" d="M882.4,367.2h1.1V347.6h-1.1v19.6Z" class="g1"/>
<path fill-rule="evenodd" d="M28.4,386.9h1.1V367.2H28.4v19.7Z" class="g1"/>
<path fill-rule="evenodd" d="M456.2,386.9h1.1V367.2h-1.1v19.7Z" class="g1"/>
<path fill-rule="evenodd" d="M882.4,386.9h1.1V367.2h-1.1v19.7Z" class="g1"/>
<path fill-rule="evenodd" d="M28.4,406.7h1.1V386.9H28.4v19.8Z" class="g1"/>
<path fill-rule="evenodd" d="M456.2,406.7h1.1V386.9h-1.1v19.8Z" class="g1"/>
<path fill-rule="evenodd" d="M882.4,406.7h1.1V386.9h-1.1v19.8Z" class="g1"/>
<path fill-rule="evenodd" d="M28.4,450.7h1.1v-44H28.4v44Z" class="g1"/>
<path fill-rule="evenodd" d="M456.2,450.7h1.1v-44h-1.1v44Z" class="g1"/>
<path fill-rule="evenodd" d="M882.4,450.7h1.1v-44h-1.1v44Z" class="g1"/>
<path fill-rule="evenodd" d="M28.4,451.8h1.1v-1.1H28.4v1.1Z" class="g1"/>
<path fill-rule="evenodd" d="M29.5,451.8H286.1v-1.1H29.5v1.1Z" class="g1"/>
<path fill-rule="evenodd" d="M286.1,451.8h1.1v-1.1h-1.1v1.1Z" class="g1"/>
<path fill-rule="evenodd" d="M287.2,451.8h169v-1.1h-169v1.1Z" class="g1"/>
<path fill-rule="evenodd" d="M456.2,451.8h1.1v-1.1h-1.1v1.1Z" class="g1"/>
<path fill-rule="evenodd" d="M457.3,451.8H717.2v-1.1H457.3v1.1Z" class="g1"/>
<path fill-rule="evenodd" d="M717.2,451.8h1.1v-1.1h-1.1v1.1Z" class="g1"/>
<path fill-rule="evenodd" d="M718.3,451.8H882.4v-1.1H718.3v1.1Z" class="g1"/>
<path fill-rule="evenodd" d="M882.4,451.8h1.1v-1.1h-1.1v1.1Z" class="g1"/>
<path fill-rule="evenodd" d="M28.4,478.2h1.1V451.8H28.4v26.4Z" class="g1"/>
<path fill-rule="evenodd" d="M456.2,478.2h1.1V451.8h-1.1v26.4Z" class="g1"/>
<path fill-rule="evenodd" d="M882.4,478.2h1.1V451.8h-1.1v26.4Z" class="g1"/>
<path fill-rule="evenodd" d="M28.4,479.3h1.1v-1.1H28.4v1.1Z" class="g1"/>
<path fill-rule="evenodd" d="M29.5,479.3H286.1v-1.1H29.5v1.1Z" class="g1"/>
<path fill-rule="evenodd" d="M286.1,479.3h1.1v-1.1h-1.1v1.1Z" class="g1"/>
<path fill-rule="evenodd" d="M287.2,479.3h169v-1.1h-169v1.1Z" class="g1"/>
<path fill-rule="evenodd" d="M456.2,479.3h1.1v-1.1h-1.1v1.1Z" class="g1"/>
<path fill-rule="evenodd" d="M457.3,479.3H717.2v-1.1H457.3v1.1Z" class="g1"/>
<path fill-rule="evenodd" d="M717.2,479.3h1.1v-1.1h-1.1v1.1Z" class="g1"/>
<path fill-rule="evenodd" d="M718.3,479.3H882.4v-1.1H718.3v1.1Z" class="g1"/>
<path fill-rule="evenodd" d="M882.4,479.3h1.1v-1.1h-1.1v1.1Z" class="g1"/>
<path fill-rule="evenodd" d="M28.4,537.6h1.1V479.3H28.4v58.3Z" class="g1"/>
<path fill-rule="evenodd" d="M28.4,538.7h1.1v-1.1H28.4v1.1Z" class="g1"/>
<path fill-rule="evenodd" d="M28.4,538.7h1.1v-1.1H28.4v1.1Z" class="g1"/>
<path fill-rule="evenodd" d="M29.5,538.7H882.4v-1.1H29.5v1.1Z" class="g1"/>
<path fill-rule="evenodd" d="M882.4,537.6h1.1V479.3h-1.1v58.3Z" class="g1"/>
<path fill-rule="evenodd" d="M882.4,538.7h1.1v-1.1h-1.1v1.1Z" class="g1"/>
<path fill-rule="evenodd" d="M882.4,538.7h1.1v-1.1h-1.1v1.1Z" class="g1"/>
</svg>