<?xml version="1.0" encoding="UTF-8" standalone="no"?>
<!DOCTYPE svg PUBLIC "-//W3C//DTD SVG 1.1//EN"
"http://www.w3.org/Graphics/SVG/1.1/DTD/svg11.dtd">
<svg viewBox="0 0 935 1210" version="1.1" xmlns="http://www.w3.org/2000/svg" xmlns:xlink="http://www.w3.org/1999/xlink">
<defs>
<style type="text/css"><![CDATA[
.g0{
fill: #000;
}
.g1{
fill: #BBB;
}
.g2{
fill: #D9D9D9;
}
]]></style>
</defs>
<path fill-rule="evenodd" d="M29.7,4.9H33V1.7H29.7V4.9Z" class="g0"/>
<path fill-rule="evenodd" d="M29.7,4.9H33V1.7H29.7V4.9Z" class="g0"/>
<path fill-rule="evenodd" d="M33,4.9H138.7V1.7H33V4.9Z" class="g0"/>
<path fill-rule="evenodd" d="M138.7,4.9H142V1.7h-3.3V4.9Z" class="g0"/>
<path fill-rule="evenodd" d="M142,4.9H457.3V1.7H142V4.9Z" class="g0"/>
<path fill-rule="evenodd" d="M457.3,4.9h3.3V1.7h-3.3V4.9Z" class="g0"/>
<path fill-rule="evenodd" d="M460.6,4.9H684V1.7H460.6V4.9Z" class="g0"/>
<path fill-rule="evenodd" d="M684,4.9h3.3V1.7H684V4.9Z" class="g0"/>
<path fill-rule="evenodd" d="M687.3,4.9H902.6V1.7H687.3V4.9Z" class="g0"/>
<path fill-rule="evenodd" d="M902.6,4.9h3.2V1.7h-3.2V4.9Z" class="g0"/>
<path fill-rule="evenodd" d="M902.6,4.9h3.2V1.7h-3.2V4.9Z" class="g0"/>
<path fill-rule="evenodd" d="M29.7,132.1H33V5H29.7V132.1Z" class="g0"/>
<path fill-rule="evenodd" d="M457.3,132.1h3.3V5h-3.3V132.1Z" class="g0"/>
<path fill-rule="evenodd" d="M684,132.1h3.3V5H684V132.1Z" class="g0"/>
<path fill-rule="evenodd" d="M902.6,132.1h3.2V5h-3.2V132.1Z" class="g0"/>
<path fill-rule="evenodd" d="M29.7,135.4H33v-3.3H29.7v3.3Z" class="g0"/>
<path fill-rule="evenodd" d="M33,135.4H138.7v-3.3H33v3.3Z" class="g0"/>
<path fill-rule="evenodd" d="M138.7,135.4H142v-3.3h-3.3v3.3Z" class="g0"/>
<path fill-rule="evenodd" d="M142,135.4H457.3v-3.3H142v3.3Z" class="g0"/>
<path fill-rule="evenodd" d="M457.3,135.4h3.3v-3.3h-3.3v3.3Z" class="g0"/>
<path fill-rule="evenodd" d="M460.6,135.4H684v-3.3H460.6v3.3Z" class="g0"/>
<path fill-rule="evenodd" d="M684,135.4h3.3v-3.3H684v3.3Z" class="g0"/>
<path fill-rule="evenodd" d="M687.3,135.4H902.6v-3.3H687.3v3.3Z" class="g0"/>
<path fill-rule="evenodd" d="M902.6,135.4h3.2v-3.3h-3.2v3.3Z" class="g0"/>
<path fill-rule="evenodd" d="M29.7,184.3H33V135.4H29.7v48.9Z" class="g0"/>
<path fill-rule="evenodd" d="M902.6,184.3h3.2V135.4h-3.2v48.9Z" class="g0"/>
<path fill-rule="evenodd" d="M29.7,187.6H33v-3.3H29.7v3.3Z" class="g0"/>
<path fill-rule="evenodd" d="M33,187.6H458.4v-3.3H33v3.3Z" class="g0"/>
<path fill-rule="evenodd" d="M458.4,187.6h3.3v-3.3h-3.3v3.3Z" class="g0"/>
<path fill-rule="evenodd" d="M461.7,187.6H685.1v-3.3H461.7v3.3Z" class="g0"/>
<path fill-rule="evenodd" d="M685.1,187.6h3.3v-3.3h-3.3v3.3Z" class="g0"/>
<path fill-rule="evenodd" d="M688.4,187.6H902.6v-3.3H688.4v3.3Z" class="g0"/>
<path fill-rule="evenodd" d="M902.6,187.6h3.2v-3.3h-3.2v3.3Z" class="g0"/>
<path fill-rule="evenodd" d="M29.7,207.5H33V187.6H29.7v19.9Z" class="g0"/>
<path fill-rule="evenodd" d="M458.4,207.5h1.1V187.6h-1.1v19.9Z" class="g0"/>
<path fill-rule="evenodd" d="M685.1,207.5h1.1V187.6h-1.1v19.9Z" class="g0"/>
<path fill-rule="evenodd" d="M902.6,207.5h3.2V187.6h-3.2v19.9Z" class="g0"/>
<path fill-rule="evenodd" d="M29.7,210.8H33v-3.3H29.7v3.3Z" class="g0"/>
<path fill-rule="evenodd" d="M33,210.8H138.7v-3.3H33v3.3Z" class="g0"/>
<path fill-rule="evenodd" d="M138.7,210.8H142v-3.3h-3.3v3.3Z" class="g0"/>
<path fill-rule="evenodd" d="M142,210.8H458.4v-3.3H142v3.3Z" class="g0"/>
<path fill-rule="evenodd" d="M458.4,210.8h3.3v-3.3h-3.3v3.3Z" class="g0"/>
<path fill-rule="evenodd" d="M461.7,210.8H685.1v-3.3H461.7v3.3Z" class="g0"/>
<path fill-rule="evenodd" d="M685.1,210.8h3.3v-3.3h-3.3v3.3Z" class="g0"/>
<path fill-rule="evenodd" d="M688.4,210.8H902.6v-3.3H688.4v3.3Z" class="g0"/>
<path fill-rule="evenodd" d="M902.6,210.8h3.2v-3.3h-3.2v3.3Z" class="g0"/>
<path fill-rule="evenodd" d="M29.7,230H33V210.8H29.7V230Z" class="g0"/>
<path fill-rule="evenodd" d="M458.4,230h1.1V210.8h-1.1V230Z" class="g0"/>
<path fill-rule="evenodd" d="M685.1,230h1.1V210.8h-1.1V230Z" class="g0"/>
<path fill-rule="evenodd" d="M902.6,230h3.2V210.8h-3.2V230Z" class="g0"/>
<path fill-rule="evenodd" d="M29.7,250.9H33V230H29.7v20.9Z" class="g0"/>
<path fill-rule="evenodd" d="M458.4,250.9h1.1V230h-1.1v20.9Z" class="g0"/>
<path fill-rule="evenodd" d="M685.1,250.9h1.1V230h-1.1v20.9Z" class="g0"/>
<path fill-rule="evenodd" d="M902.6,250.9h3.2V230h-3.2v20.9Z" class="g0"/>
<path fill-rule="evenodd" d="M29.7,271.3H33V250.9H29.7v20.4Z" class="g0"/>
<path fill-rule="evenodd" d="M458.4,271.3h1.1V250.9h-1.1v20.4Z" class="g0"/>
<path fill-rule="evenodd" d="M685.1,271.3h1.1V250.9h-1.1v20.4Z" class="g0"/>
<path fill-rule="evenodd" d="M902.6,271.3h3.2V250.9h-3.2v20.4Z" class="g0"/>
<path fill-rule="evenodd" d="M29.7,292.8H33V271.3H29.7v21.5Z" class="g0"/>
<path fill-rule="evenodd" d="M458.4,292.8h1.1V271.3h-1.1v21.5Z" class="g0"/>
<path fill-rule="evenodd" d="M685.1,292.8h1.1V271.3h-1.1v21.5Z" class="g0"/>
<path fill-rule="evenodd" d="M902.6,292.8h3.2V271.3h-3.2v21.5Z" class="g0"/>
<path fill-rule="evenodd" d="M29.7,296.1H33v-3.3H29.7v3.3Z" class="g0"/>
<path fill-rule="evenodd" d="M33,296.1H138.7v-3.3H33v3.3Z" class="g0"/>
<path fill-rule="evenodd" d="M138.7,296.1H142v-3.3h-3.3v3.3Z" class="g0"/>
<path fill-rule="evenodd" d="M142,296.1H458.4v-3.3H142v3.3Z" class="g0"/>
<path fill-rule="evenodd" d="M458.4,296.1h3.3v-3.3h-3.3v3.3Z" class="g0"/>
<path fill-rule="evenodd" d="M461.7,296.1H685.1v-3.3H461.7v3.3Z" class="g0"/>
<path fill-rule="evenodd" d="M685.1,296.1h3.3v-3.3h-3.3v3.3Z" class="g0"/>
<path fill-rule="evenodd" d="M688.4,296.1H902.6v-3.3H688.4v3.3Z" class="g0"/>
<path fill-rule="evenodd" d="M902.6,296.1h3.2v-3.3h-3.2v3.3Z" class="g0"/>
<path fill-rule="evenodd" d="M29.7,312.6H33V296.1H29.7v16.5Z" class="g0"/>
<path fill-rule="evenodd" d="M458.4,312.6h1.1V296.1h-1.1v16.5Z" class="g0"/>
<path fill-rule="evenodd" d="M685.1,312.6h1.1V296.1h-1.1v16.5Z" class="g0"/>
<path fill-rule="evenodd" d="M902.6,312.6h3.2V296.1h-3.2v16.5Z" class="g0"/>
<path fill-rule="evenodd" d="M29.7,315.9H33v-3.3H29.7v3.3Z" class="g0"/>
<path fill-rule="evenodd" d="M458.4,315.9h1.1v-3.3h-1.1v3.3Z" class="g0"/>
<path fill-rule="evenodd" d="M685.1,315.9h1.1v-3.3h-1.1v3.3Z" class="g0"/>
<path fill-rule="evenodd" d="M902.6,315.9h3.2v-3.3h-3.2v3.3Z" class="g0"/>
<path fill-rule="evenodd" d="M29.7,334H33V315.9H29.7V334Z" class="g0"/>
<path fill-rule="evenodd" d="M458.4,334h1.1V315.9h-1.1V334Z" class="g0"/>
<path fill-rule="evenodd" d="M685.1,334h1.1V315.9h-1.1V334Z" class="g0"/>
<path fill-rule="evenodd" d="M902.6,334h3.2V315.9h-3.2V334Z" class="g0"/>
<path fill-rule="evenodd" d="M29.7,337.3H33V334H29.7v3.3Z" class="g0"/>
<path fill-rule="evenodd" d="M458.4,337.3h1.1V334h-1.1v3.3Z" class="g0"/>
<path fill-rule="evenodd" d="M685.1,337.3h1.1V334h-1.1v3.3Z" class="g0"/>
<path fill-rule="evenodd" d="M902.6,337.3h3.2V334h-3.2v3.3Z" class="g0"/>
<path fill-rule="evenodd" d="M29.7,356.6H33V337.3H29.7v19.3Z" class="g0"/>
<path fill-rule="evenodd" d="M458.4,356.6h1.1V337.3h-1.1v19.3Z" class="g0"/>
<path fill-rule="evenodd" d="M685.1,356.6h1.1V337.3h-1.1v19.3Z" class="g0"/>
<path fill-rule="evenodd" d="M902.6,356.6h3.2V337.3h-3.2v19.3Z" class="g0"/>
<path fill-rule="evenodd" d="M29.7,359.9H33v-3.3H29.7v3.3Z" class="g0"/>
<path fill-rule="evenodd" d="M33,359.9H458.4v-3.3H33v3.3Z" class="g0"/>
<path fill-rule="evenodd" d="M458.4,359.9h3.3v-3.3h-3.3v3.3Z" class="g0"/>
<path fill-rule="evenodd" d="M461.7,359.9H685.1v-3.3H461.7v3.3Z" class="g0"/>
<path fill-rule="evenodd" d="M685.1,359.9h3.3v-3.3h-3.3v3.3Z" class="g0"/>
<path fill-rule="evenodd" d="M688.4,359.9H902.6v-3.3H688.4v3.3Z" class="g0"/>
<path fill-rule="evenodd" d="M902.6,359.9h3.2v-3.3h-3.2v3.3Z" class="g0"/>
<path fill-rule="evenodd" d="M29.7,383H33V359.9H29.7V383Z" class="g0"/>
<path fill-rule="evenodd" d="M458.4,383h1.1V359.9h-1.1V383Z" class="g0"/>
<path fill-rule="evenodd" d="M685.1,383h1.1V359.9h-1.1V383Z" class="g0"/>
<path fill-rule="evenodd" d="M902.6,383h3.2V359.9h-3.2V383Z" class="g0"/>
<path fill-rule="evenodd" d="M29.7,386.3H33V383H29.7v3.3Z" class="g0"/>
<path fill-rule="evenodd" d="M33,386.3H458.4V383H33v3.3Z" class="g0"/>
<path fill-rule="evenodd" d="M458.4,386.3h3.3V383h-3.3v3.3Z" class="g0"/>
<path fill-rule="evenodd" d="M461.7,386.3H685.1V383H461.7v3.3Z" class="g0"/>
<path fill-rule="evenodd" d="M685.1,386.3h3.3V383h-3.3v3.3Z" class="g0"/>
<path fill-rule="evenodd" d="M688.4,386.3H902.6V383H688.4v3.3Z" class="g0"/>
<path fill-rule="evenodd" d="M902.6,386.3h3.2V383h-3.2v3.3Z" class="g0"/>
<path fill-rule="evenodd" d="M29.7,405H33V386.3H29.7V405Z" class="g0"/>
<path fill-rule="evenodd" d="M685.1,405h1.1V386.3h-1.1V405Z" class="g0"/>
<path fill-rule="evenodd" d="M902.6,405h3.2V386.3h-3.2V405Z" class="g0"/>
<path fill-rule="evenodd" d="M29.7,408.3H33V405H29.7v3.3Z" class="g0"/>
<path fill-rule="evenodd" d="M33,408.3H685.2V405H33v3.3Z" class="g0"/>
<path fill-rule="evenodd" d="M685.1,408.3h3.3V405h-3.3v3.3Z" class="g0"/>
<path fill-rule="evenodd" d="M688.4,408.3H902.6V405H688.4v3.3Z" class="g0"/>
<path fill-rule="evenodd" d="M902.6,408.3h3.2V405h-3.2v3.3Z" class="g0"/>
<path fill-rule="evenodd" d="M29.7,428.1H33V408.3H29.7v19.8Z" class="g0"/>
<path fill-rule="evenodd" d="M685.1,428.1h1.1V408.3h-1.1v19.8Z" class="g0"/>
<path fill-rule="evenodd" d="M902.6,428.1h3.2V408.3h-3.2v19.8Z" class="g0"/>
<path fill-rule="evenodd" d="M29.7,431.4H33v-3.3H29.7v3.3Z" class="g0"/>
<path fill-rule="evenodd" d="M33,431.4H685.2v-3.3H33v3.3Z" class="g0"/>
<path fill-rule="evenodd" d="M685.1,431.4h3.3v-3.3h-3.3v3.3Z" class="g0"/>
<path fill-rule="evenodd" d="M688.4,431.4H902.6v-3.3H688.4v3.3Z" class="g0"/>
<path fill-rule="evenodd" d="M902.6,431.4h3.2v-3.3h-3.2v3.3Z" class="g0"/>
<path fill-rule="evenodd" d="M29.7,450.1H33V431.4H29.7v18.7Z" class="g0"/>
<path fill-rule="evenodd" d="M902.6,450.1h3.2V431.4h-3.2v18.7Z" class="g0"/>
<path fill-rule="evenodd" d="M33,472.1H902.6V453.4H33v18.7Z" class="g1"/>
<path fill-rule="evenodd" d="M33,467.7H902.6V453.4H33v14.3Z" class="g1"/>
<path fill-rule="evenodd" d="M29.7,453.4H33v-3.3H29.7v3.3Z" class="g0"/>
<path fill-rule="evenodd" d="M33,453.4H902.6v-3.3H33v3.3Z" class="g0"/>
<path fill-rule="evenodd" d="M902.6,453.4h3.2v-3.3h-3.2v3.3Z" class="g0"/>
<path fill-rule="evenodd" d="M29.7,472.1H33V453.4H29.7v18.7Z" class="g0"/>
<path fill-rule="evenodd" d="M902.6,472.1h3.2V453.4h-3.2v18.7Z" class="g0"/>
<path fill-rule="evenodd" d="M29.7,475.4H33v-3.3H29.7v3.3Z" class="g0"/>
<path fill-rule="evenodd" d="M33,475.4H457.3v-3.3H33v3.3Z" class="g0"/>
<path fill-rule="evenodd" d="M457.3,475.4h3.3v-3.3h-3.3v3.3Z" class="g0"/>
<path fill-rule="evenodd" d="M460.6,475.4h442v-3.3h-442v3.3Z" class="g0"/>
<path fill-rule="evenodd" d="M902.6,475.4h3.2v-3.3h-3.2v3.3Z" class="g0"/>
<path fill-rule="evenodd" d="M29.7,494.1H33V475.4H29.7v18.7Z" class="g0"/>
<path fill-rule="evenodd" d="M457.3,494.1h3.3V475.4h-3.3v18.7Z" class="g0"/>
<path fill-rule="evenodd" d="M902.6,494.1h3.2V475.4h-3.2v18.7Z" class="g0"/>
<path fill-rule="evenodd" d="M29.7,497.4H33v-3.3H29.7v3.3Z" class="g0"/>
<path fill-rule="evenodd" d="M33,497.4H457.3v-3.3H33v3.3Z" class="g0"/>
<path fill-rule="evenodd" d="M457.3,497.4h3.3v-3.3h-3.3v3.3Z" class="g0"/>
<path fill-rule="evenodd" d="M460.6,497.4H685.7v-3.3H460.6v3.3Z" class="g0"/>
<path fill-rule="evenodd" d="M685.7,497.4H689v-3.3h-3.3v3.3Z" class="g0"/>
<path fill-rule="evenodd" d="M689,497.4H902.6v-3.3H689v3.3Z" class="g0"/>
<path fill-rule="evenodd" d="M902.6,497.4h3.2v-3.3h-3.2v3.3Z" class="g0"/>
<path fill-rule="evenodd" d="M29.7,516.7H33V497.4H29.7v19.3Z" class="g0"/>
<path fill-rule="evenodd" d="M457.3,516.7h3.3V497.4h-3.3v19.3Z" class="g0"/>
<path fill-rule="evenodd" d="M902.6,516.7h3.2V497.4h-3.2v19.3Z" class="g0"/>
<path fill-rule="evenodd" d="M29.7,537.1H33V516.7H29.7v20.4Z" class="g0"/>
<path fill-rule="evenodd" d="M457.3,537.1h3.3V516.7h-3.3v20.4Z" class="g0"/>
<path fill-rule="evenodd" d="M902.6,537.1h3.2V516.7h-3.2v20.4Z" class="g0"/>
<path fill-rule="evenodd" d="M29.7,558H33V537.1H29.7V558Z" class="g0"/>
<path fill-rule="evenodd" d="M457.3,558h3.3V537.1h-3.3V558Z" class="g0"/>
<path fill-rule="evenodd" d="M902.6,558h3.2V537.1h-3.2V558Z" class="g0"/>
<path fill-rule="evenodd" d="M29.7,578.9H33V558H29.7v20.9Z" class="g0"/>
<path fill-rule="evenodd" d="M457.3,578.9h3.3V558h-3.3v20.9Z" class="g0"/>
<path fill-rule="evenodd" d="M902.6,578.9h3.2V558h-3.2v20.9Z" class="g0"/>
<path fill-rule="evenodd" d="M33,600.9H902.6V582.7H33v18.2Z" class="g1"/>
<path fill-rule="evenodd" d="M33,596.5H902.6V582.7H33v13.8Z" class="g1"/>
<path fill-rule="evenodd" d="M29.7,582.2H33v-3.3H29.7v3.3Z" class="g0"/>
<path fill-rule="evenodd" d="M33,582.2H457.3v-3.3H33v3.3Z" class="g0"/>
<path fill-rule="evenodd" d="M457.3,582.2h3.3v-3.3h-3.3v3.3Z" class="g0"/>
<path fill-rule="evenodd" d="M460.6,582.2H685.7v-3.3H460.6v3.3Z" class="g0"/>
<path fill-rule="evenodd" d="M685.7,582.2H689v-3.3h-3.3v3.3Z" class="g0"/>
<path fill-rule="evenodd" d="M689,582.2H902.6v-3.3H689v3.3Z" class="g0"/>
<path fill-rule="evenodd" d="M902.6,582.2h3.2v-3.3h-3.2v3.3Z" class="g0"/>
<path fill-rule="evenodd" d="M29.7,600.9H33V582.2H29.7v18.7Z" class="g0"/>
<path fill-rule="evenodd" d="M902.6,600.9h3.2V582.2h-3.2v18.7Z" class="g0"/>
<path fill-rule="evenodd" d="M29.7,604.2H33v-3.3H29.7v3.3Z" class="g0"/>
<path fill-rule="evenodd" d="M33,604.2H138.7v-3.3H33v3.3Z" class="g0"/>
<path fill-rule="evenodd" d="M138.7,604.2H142v-3.3h-3.3v3.3Z" class="g0"/>
<path fill-rule="evenodd" d="M142,604.2H459v-3.3H142v3.3Z" class="g0"/>
<path fill-rule="evenodd" d="M459,604.2h3.3v-3.3H459v3.3Z" class="g0"/>
<path fill-rule="evenodd" d="M462.3,604.2H685.7v-3.3H462.3v3.3Z" class="g0"/>
<path fill-rule="evenodd" d="M685.7,604.2H689v-3.3h-3.3v3.3Z" class="g0"/>
<path fill-rule="evenodd" d="M689,604.2H902.6v-3.3H689v3.3Z" class="g0"/>
<path fill-rule="evenodd" d="M902.6,604.2h3.2v-3.3h-3.2v3.3Z" class="g0"/>
<path fill-rule="evenodd" d="M29.7,624H33V604.2H29.7V624Z" class="g0"/>
<path fill-rule="evenodd" d="M902.6,624h3.2V604.2h-3.2V624Z" class="g0"/>
<path fill-rule="evenodd" d="M29.7,800.6H33V624H29.7V800.6Z" class="g0"/>
<path fill-rule="evenodd" d="M902.6,800.6h3.2V624h-3.2V800.6Z" class="g0"/>
<path fill-rule="evenodd" d="M33,822.6H902.6V803.9H33v18.7Z" class="g2"/>
<path fill-rule="evenodd" d="M33,818.2H902.6V803.9H33v14.3Z" class="g2"/>
<path fill-rule="evenodd" d="M29.7,803.9H33v-3.3H29.7v3.3Z" class="g0"/>
<path fill-rule="evenodd" d="M33,803.9H902.6v-3.3H33v3.3Z" class="g0"/>
<path fill-rule="evenodd" d="M902.6,803.9h3.2v-3.3h-3.2v3.3Z" class="g0"/>
<path fill-rule="evenodd" d="M29.7,822.6H33V803.9H29.7v18.7Z" class="g0"/>
<path fill-rule="evenodd" d="M902.6,822.6h3.2V803.9h-3.2v18.7Z" class="g0"/>
<path fill-rule="evenodd" d="M29.7,825.9H33v-3.3H29.7v3.3Z" class="g0"/>
<path fill-rule="evenodd" d="M33,825.9H138.7v-3.3H33v3.3Z" class="g0"/>
<path fill-rule="evenodd" d="M138.7,825.9H142v-3.3h-3.3v3.3Z" class="g0"/>
<path fill-rule="evenodd" d="M142,825.9H459v-3.3H142v3.3Z" class="g0"/>
<path fill-rule="evenodd" d="M459,825.9h3.3v-3.3H459v3.3Z" class="g0"/>
<path fill-rule="evenodd" d="M462.3,825.9H685.7v-3.3H462.3v3.3Z" class="g0"/>
<path fill-rule="evenodd" d="M685.7,825.9H689v-3.3h-3.3v3.3Z" class="g0"/>
<path fill-rule="evenodd" d="M689,825.9H902.6v-3.3H689v3.3Z" class="g0"/>
<path fill-rule="evenodd" d="M902.6,825.9h3.2v-3.3h-3.2v3.3Z" class="g0"/>
<path fill-rule="evenodd" d="M29.7,845.7H33V825.9H29.7v19.8Z" class="g0"/>
<path fill-rule="evenodd" d="M902.6,845.7h3.2V825.9h-3.2v19.8Z" class="g0"/>
<path fill-rule="evenodd" d="M29.7,1016.3H33V845.7H29.7v170.6Z" class="g0"/>
<path fill-rule="evenodd" d="M902.6,1016.3h3.2V845.7h-3.2v170.6Z" class="g0"/>
<path fill-rule="evenodd" d="M33,1038.3H902.6v-18.7H33v18.7Z" class="g2"/>
<path fill-rule="evenodd" d="M33,1033.9H902.6v-14.3H33v14.3Z" class="g2"/>
<path fill-rule="evenodd" d="M29.7,1019.6H33v-3.3H29.7v3.3Z" class="g0"/>
<path fill-rule="evenodd" d="M33,1019.6H902.6v-3.3H33v3.3Z" class="g0"/>
<path fill-rule="evenodd" d="M902.6,1019.6h3.2v-3.3h-3.2v3.3Z" class="g0"/>
<path fill-rule="evenodd" d="M29.7,1038.3H33v-18.7H29.7v18.7Z" class="g0"/>
<path fill-rule="evenodd" d="M902.6,1038.3h3.2v-18.7h-3.2v18.7Z" class="g0"/>
<path fill-rule="evenodd" d="M29.7,1041.6H33v-3.3H29.7v3.3Z" class="g0"/>
<path fill-rule="evenodd" d="M33,1041.6H902.6v-3.3H33v3.3Z" class="g0"/>
<path fill-rule="evenodd" d="M902.6,1041.6h3.2v-3.3h-3.2v3.3Z" class="g0"/>
<path fill-rule="evenodd" d="M29.7,1057.6H33v-16H29.7v16Z" class="g0"/>
<path fill-rule="evenodd" d="M902.6,1057.6h3.2v-16h-3.2v16Z" class="g0"/>
<path fill-rule="evenodd" d="M29.7,1059.2H33v-1.6H29.7v1.6Z" class="g0"/>
<path fill-rule="evenodd" d="M33,1058.7H138.1v-1.1H33v1.1Z" class="g0"/>
<path fill-rule="evenodd" d="M138.1,1059.2h1.1v-.5h-1.1v.5Z" class="g0"/>
<path fill-rule="evenodd" d="M138.1,1058.7h1.1v-1.1h-1.1v1.1Z" class="g0"/>
<path fill-rule="evenodd" d="M139.2,1058.7h546v-1.1h-546v1.1Z" class="g0"/>
<path fill-rule="evenodd" d="M685.1,1059.2h1.1v-.5h-1.1v.5Z" class="g0"/>
<path fill-rule="evenodd" d="M685.1,1058.7h1.1v-1.1h-1.1v1.1Z" class="g0"/>
<path fill-rule="evenodd" d="M686.2,1058.7H902.6v-1.1H686.2v1.1Z" class="g0"/>
<path fill-rule="evenodd" d="M902.6,1059.2h3.2v-1.6h-3.2v1.6Z" class="g0"/>
<path fill-rule="evenodd" d="M29.7,1075.2H33v-16H29.7v16Z" class="g0"/>
<path fill-rule="evenodd" d="M138.1,1075.2h1.1v-16h-1.1v16Z" class="g0"/>
<path fill-rule="evenodd" d="M685.1,1075.2h1.1v-16h-1.1v16Z" class="g0"/>
<path fill-rule="evenodd" d="M902.6,1075.2h3.2v-16h-3.2v16Z" class="g0"/>
<path fill-rule="evenodd" d="M29.7,1076.9H33v-1.7H29.7v1.7Z" class="g0"/>
<path fill-rule="evenodd" d="M33,1076.3H138.1v-1.1H33v1.1Z" class="g0"/>
<path fill-rule="evenodd" d="M138.1,1076.9h1.1v-1.7h-1.1v1.7Z" class="g0"/>
<path fill-rule="evenodd" d="M139.2,1076.3H458.4v-1.1H139.2v1.1Z" class="g0"/>
<path fill-rule="evenodd" d="M458.4,1076.9h1.1v-.6h-1.1v.6Z" class="g0"/>
<path fill-rule="evenodd" d="M458.4,1076.3h1.1v-1.1h-1.1v1.1Z" class="g0"/>
<path fill-rule="evenodd" d="M459.5,1076.3H685.1v-1.1H459.5v1.1Z" class="g0"/>
<path fill-rule="evenodd" d="M685.1,1076.9h1.1v-1.7h-1.1v1.7Z" class="g0"/>
<path fill-rule="evenodd" d="M686.2,1076.3H902.6v-1.1H686.2v1.1Z" class="g0"/>
<path fill-rule="evenodd" d="M902.6,1076.9h3.2v-1.7h-3.2v1.7Z" class="g0"/>
<path fill-rule="evenodd" d="M29.7,1093.4H33v-16.5H29.7v16.5Z" class="g0"/>
<path fill-rule="evenodd" d="M138.1,1093.4h1.1v-16.5h-1.1v16.5Z" class="g0"/>
<path fill-rule="evenodd" d="M458.4,1093.4h1.1v-16.5h-1.1v16.5Z" class="g0"/>
<path fill-rule="evenodd" d="M685.1,1093.4h1.1v-16.5h-1.1v16.5Z" class="g0"/>
<path fill-rule="evenodd" d="M902.6,1093.4h3.2v-16.5h-3.2v16.5Z" class="g0"/>
<path fill-rule="evenodd" d="M29.7,1095H33v-1.6H29.7v1.6Z" class="g0"/>
<path fill-rule="evenodd" d="M33,1094.5H138.1v-1.1H33v1.1Z" class="g0"/>
<path fill-rule="evenodd" d="M138.1,1095h1.1v-1.6h-1.1v1.6Z" class="g0"/>
<path fill-rule="evenodd" d="M139.2,1094.5H458.4v-1.1H139.2v1.1Z" class="g0"/>
<path fill-rule="evenodd" d="M458.4,1095h1.1v-1.6h-1.1v1.6Z" class="g0"/>
<path fill-rule="evenodd" d="M459.5,1094.5H685.1v-1.1H459.5v1.1Z" class="g0"/>
<path fill-rule="evenodd" d="M685.1,1095h1.1v-1.6h-1.1v1.6Z" class="g0"/>
<path fill-rule="evenodd" d="M686.2,1094.5H902.6v-1.1H686.2v1.1Z" class="g0"/>
<path fill-rule="evenodd" d="M902.6,1095h3.2v-1.6h-3.2v1.6Z" class="g0"/>
<path fill-rule="evenodd" d="M29.7,1111.5H33V1095H29.7v16.5Z" class="g0"/>
<path fill-rule="evenodd" d="M138.1,1111.5h1.1V1095h-1.1v16.5Z" class="g0"/>
<path fill-rule="evenodd" d="M458.4,1111.5h1.1V1095h-1.1v16.5Z" class="g0"/>
<path fill-rule="evenodd" d="M685.1,1111.5h1.1V1095h-1.1v16.5Z" class="g0"/>
<path fill-rule="evenodd" d="M902.6,1111.5h3.2V1095h-3.2v16.5Z" class="g0"/>
<path fill-rule="evenodd" d="M29.7,1113.2H33v-1.7H29.7v1.7Z" class="g0"/>
<path fill-rule="evenodd" d="M33,1112.6H138.1v-1.1H33v1.1Z" class="g0"/>
<path fill-rule="evenodd" d="M138.1,1113.2h1.1v-1.7h-1.1v1.7Z" class="g0"/>
<path fill-rule="evenodd" d="M139.2,1112.6H458.4v-1.1H139.2v1.1Z" class="g0"/>
<path fill-rule="evenodd" d="M458.4,1113.2h1.1v-1.7h-1.1v1.7Z" class="g0"/>
<path fill-rule="evenodd" d="M459.5,1112.6H685.1v-1.1H459.5v1.1Z" class="g0"/>
<path fill-rule="evenodd" d="M685.1,1113.2h1.1v-1.7h-1.1v1.7Z" class="g0"/>
<path fill-rule="evenodd" d="M686.2,1112.6H902.6v-1.1H686.2v1.1Z" class="g0"/>
<path fill-rule="evenodd" d="M902.6,1113.2h3.2v-1.7h-3.2v1.7Z" class="g0"/>
<path fill-rule="evenodd" d="M29.7,1129.7H33v-16.5H29.7v16.5Z" class="g0"/>
<path fill-rule="evenodd" d="M138.1,1129.7h1.1v-16.5h-1.1v16.5Z" class="g0"/>
<path fill-rule="evenodd" d="M458.4,1129.7h1.1v-16.5h-1.1v16.5Z" class="g0"/>
<path fill-rule="evenodd" d="M685.1,1129.7h1.1v-16.5h-1.1v16.5Z" class="g0"/>
<path fill-rule="evenodd" d="M902.6,1129.7h3.2v-16.5h-3.2v16.5Z" class="g0"/>
<path fill-rule="evenodd" d="M29.7,1131.3H33v-1.6H29.7v1.6Z" class="g0"/>
<path fill-rule="evenodd" d="M33,1130.8H138.1v-1.1H33v1.1Z" class="g0"/>
<path fill-rule="evenodd" d="M138.1,1131.3h1.1v-1.6h-1.1v1.6Z" class="g0"/>
<path fill-rule="evenodd" d="M139.2,1130.8H458.4v-1.1H139.2v1.1Z" class="g0"/>
<path fill-rule="evenodd" d="M458.4,1130.8h1.1v-1.1h-1.1v1.1Z" class="g0"/>
<path fill-rule="evenodd" d="M459.5,1130.8H685.1v-1.1H459.5v1.1Z" class="g0"/>
<path fill-rule="evenodd" d="M685.1,1131.3h1.1v-1.6h-1.1v1.6Z" class="g0"/>
<path fill-rule="evenodd" d="M686.2,1130.8H902.6v-1.1H686.2v1.1Z" class="g0"/>
<path fill-rule="evenodd" d="M902.6,1131.3h3.2v-1.6h-3.2v1.6Z" class="g0"/>
<path fill-rule="evenodd" d="M29.7,1147.9H33v-16.6H29.7v16.6Z" class="g0"/>
<path fill-rule="evenodd" d="M138.1,1147.9h1.1v-16.6h-1.1v16.6Z" class="g0"/>
<path fill-rule="evenodd" d="M685.1,1147.9h1.1v-16.6h-1.1v16.6Z" class="g0"/>
<path fill-rule="evenodd" d="M902.6,1147.9h3.2v-16.6h-3.2v16.6Z" class="g0"/>
<path fill-rule="evenodd" d="M29.7,1149.5H33v-1.6H29.7v1.6Z" class="g0"/>
<path fill-rule="evenodd" d="M33,1149H138.1v-1.1H33v1.1Z" class="g0"/>
<path fill-rule="evenodd" d="M138.1,1149.5h1.1v-1.6h-1.1v1.6Z" class="g0"/>
<path fill-rule="evenodd" d="M139.2,1149h546v-1.1h-546v1.1Z" class="g0"/>
<path fill-rule="evenodd" d="M685.1,1149.5h1.1v-1.6h-1.1v1.6Z" class="g0"/>
<path fill-rule="evenodd" d="M686.2,1149H902.6v-1.1H686.2v1.1Z" class="g0"/>
<path fill-rule="evenodd" d="M902.6,1149.5h3.2v-1.6h-3.2v1.6Z" class="g0"/>
<path fill-rule="evenodd" d="M29.7,1166H33v-16.5H29.7V1166Z" class="g0"/>
<path fill-rule="evenodd" d="M138.1,1166h1.1v-16.5h-1.1V1166Z" class="g0"/>
<path fill-rule="evenodd" d="M685.1,1166h1.1v-16.5h-1.1V1166Z" class="g0"/>
<path fill-rule="evenodd" d="M902.6,1166h3.2v-16.5h-3.2V1166Z" class="g0"/>
<path fill-rule="evenodd" d="M29.7,1167.7H33V1166H29.7v1.7Z" class="g0"/>
<path fill-rule="evenodd" d="M33,1167.1H138.1V1166H33v1.1Z" class="g0"/>
<path fill-rule="evenodd" d="M138.1,1167.7h1.1V1166h-1.1v1.7Z" class="g0"/>
<path fill-rule="evenodd" d="M139.2,1167.1h546V1166h-546v1.1Z" class="g0"/>
<path fill-rule="evenodd" d="M685.1,1167.7h1.1V1166h-1.1v1.7Z" class="g0"/>
<path fill-rule="evenodd" d="M686.2,1167.1H902.6V1166H686.2v1.1Z" class="g0"/>
<path fill-rule="evenodd" d="M902.6,1167.7h3.2V1166h-3.2v1.7Z" class="g0"/>
<path fill-rule="evenodd" d="M29.7,1184.2H33v-16.5H29.7v16.5Z" class="g0"/>
<path fill-rule="evenodd" d="M138.1,1184.2h1.1v-16.5h-1.1v16.5Z" class="g0"/>
<path fill-rule="evenodd" d="M685.1,1184.2h1.1v-16.5h-1.1v16.5Z" class="g0"/>
<path fill-rule="evenodd" d="M902.6,1184.2h3.2v-16.5h-3.2v16.5Z" class="g0"/>
<path fill-rule="evenodd" d="M29.7,1185.8H33v-1.6H29.7v1.6Z" class="g0"/>
<path fill-rule="evenodd" d="M33,1185.3H138.1v-1.1H33v1.1Z" class="g0"/>
<path fill-rule="evenodd" d="M138.1,1185.8h1.1v-1.6h-1.1v1.6Z" class="g0"/>
<path fill-rule="evenodd" d="M139.2,1185.3h546v-1.1h-546v1.1Z" class="g0"/>
<path fill-rule="evenodd" d="M685.1,1185.8h1.1v-1.6h-1.1v1.6Z" class="g0"/>
<path fill-rule="evenodd" d="M686.2,1185.3H902.6v-1.1H686.2v1.1Z" class="g0"/>
<path fill-rule="evenodd" d="M902.6,1185.8h3.2v-1.6h-3.2v1.6Z" class="g0"/>
<path fill-rule="evenodd" d="M29.7,1202.9H33v-17.1H29.7v17.1Z" class="g0"/>
<path fill-rule="evenodd" d="M29.7,1206.2H33v-3.3H29.7v3.3Z" class="g0"/>
<path fill-rule="evenodd" d="M29.7,1206.2H33v-3.3H29.7v3.3Z" class="g0"/>
<path fill-rule="evenodd" d="M33,1206.2H138.1v-3.3H33v3.3Z" class="g0"/>
<path fill-rule="evenodd" d="M138.1,1202.9h1.1v-17.1h-1.1v17.1Z" class="g0"/>
<path fill-rule="evenodd" d="M138.1,1206.2h3.3v-3.3h-3.3v3.3Z" class="g0"/>
<path fill-rule="evenodd" d="M141.4,1206.2H685.2v-3.3H141.4v3.3Z" class="g0"/>
<path fill-rule="evenodd" d="M685.1,1202.9h1.1v-17.1h-1.1v17.1Z" class="g0"/>
<path fill-rule="evenodd" d="M685.1,1206.2h3.3v-3.3h-3.3v3.3Z" class="g0"/>
<path fill-rule="evenodd" d="M688.4,1206.2H902.6v-3.3H688.4v3.3Z" class="g0"/>
<path fill-rule="evenodd" d="M902.6,1202.9h3.2v-17.1h-3.2v17.1Z" class="g0"/>
<path fill-rule="evenodd" d="M902.6,1206.2h3.2v-3.3h-3.2v3.3Z" class="g0"/>
<path fill-rule="evenodd" d="M902.6,1206.2h3.2v-3.3h-3.2v3.3Z" class="g0"/>
<image preserveAspectRatio="none" x="756" y="10" width="88" height="67" xlink:href="img/1.jpg"/>
</svg>